<?xml version="1.0" encoding="utf-8"?>
<!-- Generator: Adobe Illustrator 16.0.0, SVG Export Plug-In . SVG Version: 6.00 Build 0)  -->
<!DOCTYPE svg PUBLIC "-//W3C//DTD SVG 1.1//EN" "http://www.w3.org/Graphics/SVG/1.1/DTD/svg11.dtd">
<svg version="1.1" id="Layer_1" xmlns="http://www.w3.org/2000/svg" xmlns:xlink="http://www.w3.org/1999/xlink" x="0px" y="0px"
	 width="620px" height="137.777px" viewBox="0 0 620 137.777" enable-background="new 0 0 620 137.777" xml:space="preserve">
<g>
	<path fill="#FFFFFF" d="M520.008,65.802l18.678-10.5v60.519h-7.215V66.684l-11.463,6.812V65.802z"/>
	<path fill="#FFFFFF" d="M550.648,89.528V56.984h28.457v6.733h-21.724v16.512c2.886-1.202,5.13-1.603,7.694-1.603
		c7.936,0,18.117,6.092,18.117,18.597c0,10.582-7.936,19.239-18.438,19.239c-9.057,0-14.348-3.688-18.436-10.341l6.012-3.929
		c2.484,5.05,6.734,7.938,11.863,7.938c5.21,0,11.783-3.85,11.783-12.748c0-7.213-5.371-12.424-12.184-12.424
		c-4.41,0-8.416,1.523-12.346,5.131L550.648,89.528z"/>
	<path fill="#FFFFFF" d="M608.137,82.234c2.244-3.367,4.648-6.974,4.648-11.142c0-4.408-3.767-8.016-8.416-8.016
		c-5.369,0-9.699,2.725-10.181,9.939h-7.214c0.24-9.939,7.055-16.673,16.834-16.673c8.496,0,16.191,5.13,16.191,14.668
		c0,3.848-1.121,7.215-3.047,10.1l-18.517,27.976h21.082v6.733h-33.906L608.137,82.234z"/>
	<g>
		<polygon fill="#FFFFFF" points="395.598,22.403 409.838,23.44 395.598,24.582 		"/>
	</g>
	<g>
		<polygon fill="#FFFFFF" points="393.326,22.403 379.087,23.44 393.326,24.582 		"/>
	</g>
	<g>
		<g>
			<g>
				<polygon fill="#E6E7E8" points="392.715,22.041 394.104,5.283 395.646,22.041 				"/>
			</g>
			<g>
				<polygon fill="#E6E7E8" points="392.715,24.716 394.104,41.47 395.646,24.716 				"/>
			</g>
		</g>
	</g>
	<g>
		<path fill="#BBBDBF" d="M397.528,23.442c0,1.916-1.548,3.467-3.462,3.467c-1.918,0-3.467-1.551-3.467-3.467
			c0-1.914,1.549-3.466,3.467-3.466C395.98,19.976,397.528,21.528,397.528,23.442z"/>
		<polygon fill="#BBBDBF" points="386.516,16.048 393.881,21.677 401.242,16.048 395.615,23.412 401.242,30.775 393.881,25.147 
			386.516,30.775 392.143,23.412 		"/>
	</g>
	<radialGradient id="SVGID_1_" cx="394.0645" cy="23.4426" r="3.49" gradientUnits="userSpaceOnUse">
		<stop  offset="0.4677" style="stop-color:#F1F1F2"/>
		<stop  offset="1" style="stop-color:#D0D2D3"/>
	</radialGradient>
	<path fill="url(#SVGID_1_)" d="M397.555,23.444c0,1.923-1.562,3.488-3.492,3.488c-1.926,0-3.488-1.565-3.488-3.488
		c0-1.928,1.562-3.491,3.488-3.491C395.992,19.953,397.555,21.516,397.555,23.444z"/>
	<g>
		<linearGradient id="SVGID_2_" gradientUnits="userSpaceOnUse" x1="126.1226" y1="34.5232" x2="126.1226" y2="115.4088">
			<stop  offset="0.2835" style="stop-color:#FFFFFF"/>
			<stop  offset="1" style="stop-color:#58595B"/>
		</linearGradient>
		<path fill="url(#SVGID_2_)" d="M126.123,53.938c20.68,0,32.304,16.353,32.304,31.422c0,15.07-11.624,31.423-32.304,31.423
			c-20.681,0-32.304-16.353-32.304-31.423C93.819,70.291,105.442,53.938,126.123,53.938z M126.123,109.568
			c12.424,0,24.127-9.779,24.127-24.208c0-14.428-11.703-24.207-24.127-24.207c-12.425,0-24.127,9.779-24.127,24.207
			C101.995,99.789,113.698,109.568,126.123,109.568z"/>
		<linearGradient id="SVGID_3_" gradientUnits="userSpaceOnUse" x1="256.5679" y1="34.5237" x2="256.5679" y2="115.4088">
			<stop  offset="0.2835" style="stop-color:#FFFFFF"/>
			<stop  offset="1" style="stop-color:#58595B"/>
		</linearGradient>
		<path fill="url(#SVGID_3_)" d="M272.76,54.901h7.694v60.919h-7.213l-32.704-47.133h-0.16v47.133h-7.697V54.901h7.215
			l32.704,47.132h0.16V54.901z"/>
		<linearGradient id="SVGID_4_" gradientUnits="userSpaceOnUse" x1="307.8735" y1="34.5232" x2="307.8735" y2="115.4088">
			<stop  offset="0.2835" style="stop-color:#FFFFFF"/>
			<stop  offset="1" style="stop-color:#58595B"/>
		</linearGradient>
		<path fill="url(#SVGID_4_)" d="M319.497,72.295c-1.042-7.214-5.211-11.623-11.703-11.623c-8.658,0-10.981,5.691-10.981,9.859
			c0,4.569,2.886,7.455,8.896,9.698l7.695,2.886c9.699,3.608,14.188,9.3,14.188,16.674c0,9.859-7.854,16.994-19.557,16.994
			c-11.062,0-18.918-5.852-19.879-18.036h7.694c0.642,6.654,4.009,11.301,12.586,11.301c6.654,0,11.461-4.248,11.461-9.617
			c0-4.729-3.926-7.777-9.458-9.94l-7.775-3.046c-9.057-3.526-13.547-8.817-13.547-16.673c0-10.5,8.738-16.833,18.758-16.833
			c10.098,0,17.956,6.013,18.835,18.356H319.497z"/>
		<linearGradient id="SVGID_5_" gradientUnits="userSpaceOnUse" x1="358.9385" y1="34.5237" x2="358.9385" y2="115.4088">
			<stop  offset="0.2835" style="stop-color:#FFFFFF"/>
			<stop  offset="1" style="stop-color:#58595B"/>
		</linearGradient>
		<path fill="url(#SVGID_5_)" d="M374.848,54.901h7.697v60.919h-7.697V88.246h-31.822v27.574h-7.693V54.901h7.693v26.13h31.822
			V54.901z"/>
		<linearGradient id="SVGID_6_" gradientUnits="userSpaceOnUse" x1="394.5303" y1="34.5237" x2="394.5303" y2="115.4088">
			<stop  offset="0.2835" style="stop-color:#FFFFFF"/>
			<stop  offset="1" style="stop-color:#58595B"/>
		</linearGradient>
		<path fill="url(#SVGID_6_)" d="M390.684,54.901h7.693v60.919h-7.693V54.901z"/>
		<linearGradient id="SVGID_7_" gradientUnits="userSpaceOnUse" x1="430.5332" y1="34.5237" x2="430.5332" y2="115.4088">
			<stop  offset="0.2835" style="stop-color:#FFFFFF"/>
			<stop  offset="1" style="stop-color:#58595B"/>
		</linearGradient>
		<path fill="url(#SVGID_7_)" d="M446.725,54.901h7.695v60.919h-7.213l-32.706-47.133h-0.159v47.133h-7.695V54.901h7.213
			l32.704,47.132h0.161V54.901z"/>
		<linearGradient id="SVGID_8_" gradientUnits="userSpaceOnUse" x1="477.8555" y1="34.5237" x2="477.8555" y2="115.4088">
			<stop  offset="0.2835" style="stop-color:#FFFFFF"/>
			<stop  offset="1" style="stop-color:#58595B"/>
		</linearGradient>
		<path fill="url(#SVGID_8_)" d="M462.105,54.901h31.5v7.213h-23.807v19.318h23.807v7.214h-23.807v19.96h23.807v7.214h-31.5V54.901z
			"/>
	</g>
	<g>
		<linearGradient id="SVGID_9_" gradientUnits="userSpaceOnUse" x1="21.5972" y1="34.5227" x2="21.5972" y2="115.4086">
			<stop  offset="0" style="stop-color:#FFFFFF"/>
			<stop  offset="1" style="stop-color:#58595B"/>
		</linearGradient>
		<polygon fill="url(#SVGID_9_)" points="43.194,116.302 7.856,50.741 7.696,50.741 7.696,116.177 0,116.177 0,34.949 7.696,34.949 
			43.194,100.432 		"/>
		<linearGradient id="SVGID_10_" gradientUnits="userSpaceOnUse" x1="64.6436" y1="34.5227" x2="64.6436" y2="115.4083">
			<stop  offset="0" style="stop-color:#FFFFFF"/>
			<stop  offset="1" style="stop-color:#58595B"/>
		</linearGradient>
		<polygon fill="url(#SVGID_10_)" points="43.145,100.342 78.447,34.657 86.142,34.657 86.142,115.885 78.447,115.885 
			78.447,50.449 78.287,50.449 43.194,116.347 		"/>
	</g>
	<path fill="#FFFFFF" d="M183.374,54.612c-5.914,5.644-9.604,13.599-9.604,22.416c0,17.122,13.88,31.005,30.999,31.005
		c8.079,0,15.433-3.096,20.95-8.155c-5.609,9.609-16.023,16.072-27.955,16.072c-17.872,0-32.357-14.49-32.357-32.357
		C165.407,70.894,172.726,59.906,183.374,54.612z"/>
</g>
</svg>
