<svg xmlns="http://www.w3.org/2000/svg" width="620" height="137.777" viewBox="0 0 620 137.777"><path d="M409.834 31.295l-12.407-.9c-.092-.341-.228-.663-.412-.954l4.232-5.542-5.612 4.296-.152-.083-1.377-14.967-1.235 14.885c-.206.075-.401.169-.588.28l-5.773-4.411 4.45 5.826c-.117.23-.212.473-.276.729l-11.591.841 11.618.931c.059.212.135.415.23.608l-4.432 5.795 5.726-4.369c.202.125.419.228.646.31l1.225 14.759 1.365-14.838.213-.115 5.563 4.254-4.213-5.511c.157-.256.276-.533.363-.827l12.437-.997zm110.181 50.055l11.463-6.805v49.131h7.21v-60.52l-18.673 10.5zm96.93 7.623c1.934-2.891 3.055-6.262 3.055-10.107 0-9.537-7.692-14.662-16.183-14.662-9.784 0-16.596 6.729-16.843 16.664h7.21c.482-7.203 4.816-9.936 10.184-9.936 4.65 0 8.421 3.613 8.421 8.023 0 4.176-2.422 7.768-4.65 11.131l-22.526 33.604h33.906v-6.734h-21.081l18.507-27.983zm-51.864-2.498c-2.573 0-4.816.406-7.706 1.617v-16.514h21.729v-6.734h-28.457v32.537l.825.535c3.936-3.598 7.94-5.133 12.344-5.133 6.812 0 12.178 5.23 12.178 12.434 0 8.91-6.591 12.75-11.779 12.75-5.146 0-9.385-2.891-11.875-7.941l-6.014 3.943c4.087 6.666 9.371 10.34 18.426 10.34 10.499 0 18.439-8.641 18.439-19.223-.001-12.516-10.183-18.611-18.11-18.611zm-438.961-24.688c-20.679 0-32.304 16.361-32.304 31.416 0 15.076 11.618 31.43 32.304 31.43 20.679 0 32.303-16.354 32.303-31.43 0-15.06-11.624-31.416-32.303-31.416zm0 55.629c-12.419 0-24.123-9.771-24.123-24.219 0-14.422 11.697-24.199 24.123-24.199 12.422 0 24.126 9.777 24.126 24.199 0 14.434-11.704 24.219-24.126 24.219zm146.637-54.658h7.695v60.918h-7.207l-32.705-47.129h-.162v47.129h-7.695v-60.918h7.213l32.706 47.131h.155zm46.738 17.394c-1.039-7.219-5.202-11.621-11.7-11.621-8.659 0-10.984 5.697-10.984 9.859 0 4.568 2.883 7.451 8.899 9.688l7.686 2.889c9.705 3.613 14.197 9.289 14.197 16.664 0 9.859-7.851 16.996-19.557 16.996-11.064 0-18.925-5.855-19.885-18.055h7.696c.64 6.66 4.008 11.305 12.58 11.305 6.664 0 11.452-4.246 11.452-9.613 0-4.732-3.922-7.773-9.45-9.947l-7.778-3.041c-9.054-3.531-13.547-8.822-13.547-16.672 0-10.5 8.734-16.836 18.759-16.836 10.098 0 17.947 6.02 18.828 18.357h-7.196v.027zm55.359-17.394h7.692v60.918h-7.692v-27.576h-31.829v27.576h-7.692v-60.918h7.692v26.131h31.829zm15.825 0h7.699v60.918h-7.699zm56.047 0h7.692v60.918h-7.211l-32.709-47.129h-.151v47.129h-7.706v-60.918h7.217l32.703 47.131h.165zm15.384 0h31.498v7.211h-23.805v19.32h23.805v7.211h-23.805v19.967h23.805v7.195h-31.498zm-383.668-20.242l-35.296 65.679-35.454-65.383h-7.692v81.223h7.692v-65.439h.165l35.338 65.562v.041l35.093-65.9h.154v65.439h7.704v-81.222zm104.929 19.953c-5.91 5.643-9.602 13.596-9.602 22.416 0 17.119 13.878 31.004 30.999 31.004 8.074 0 15.43-3.098 20.954-8.16-5.607 9.617-16.021 16.072-27.958 16.072-17.872 0-32.358-14.504-32.358-32.365 0-12.688 7.322-23.668 17.965-28.967z" fill="#fff"/></svg>